<svg aria-hidden="true" xmlns="http://www.w3.org/2000/svg" viewBox="335 20 166 160" fill="none"><ellipse cx="418.178" cy="99.034" rx="37.6104" ry="37.6104" stroke="#A29283" stroke-width="1.2"/><ellipse cx="418.168" cy="99.0295" rx="34.5291" ry="34.5291" stroke="#A29283" stroke-width="1.2"/><g class="still"><svg aria-hidden="true" x="358.406" y="38.754" width="119.164" height="120.346"
        data-pencil-name="Top-down object outline 17"
        viewBox="-0.000003814697265625 0.000003814697265625 119.16373062133789 120.34624862670898"
        preserveAspectRatio="none"
        xmlns="http://www.w3.org/2000/svg"
      >
        <path
          d="M112.76752 32.25c4.1925 8.2775 6.39621 17.415 6.39621 28.32624 0 34.23876-27.89621 59.77001-59.01749 59.77001-35.1525 0-60.14624-27.68126-60.14624-60.03875 0-34.83 26.98251-60.3075 59.93124-60.3075 17.95248 0 33.48624 8.17 43.48374 18.92"
          fill="none"
          stroke="#A29283"
          stroke-width="1.2"
          stroke-linecap="butt"
          stroke-linejoin="miter"
          vector-effect="non-scaling-stroke"
        ></path>
      </svg></g><g class="steam"><svg aria-hidden="true" x="412.097" y="87.129" width="3.393" height="24.026"
        data-pencil-name="Top-down object outline 20"
        viewBox="-0.0000050067901611328125 0 3.393213987350464 24.026248931884766"
        preserveAspectRatio="none"
        xmlns="http://www.w3.org/2000/svg"
      >
        <path
          d="M2.53229 0c-1.72 2.95625-3.38623 7.31001-2.04248 10.80375 1.61249 4.46125 4.67624 8.0625 1.55871 13.2225"
          fill="none"
          stroke="#B1A092"
          stroke-width="1"
          stroke-linecap="butt"
          stroke-linejoin="miter"
          vector-effect="non-scaling-stroke"
        ></path>
      </svg></g><g class="steam"><svg aria-hidden="true" x="419.141" y="88.258" width="2.243" height="17.308"
        data-pencil-name="Top-down object outline 21"
        viewBox="-0.0000011920928955078125 0 2.2426204681396484 17.307491302490234"
        preserveAspectRatio="none"
        xmlns="http://www.w3.org/2000/svg"
      >
        <path
          d="M1.6691 0c-1.55875 1.88126-2.25751 4.8375-1.07501 8.11625 1.12875 3.27875 2.74124 6.45 0.59127 9.19124"
          fill="none"
          stroke="#B1A092"
          stroke-width="1"
          stroke-linecap="butt"
          stroke-linejoin="miter"
          vector-effect="non-scaling-stroke"
        ></path>
      </svg></g><g class="still"><svg aria-hidden="true" x="445.858" y="58.019" width="26.917" height="24.971"
        data-pencil-name="Top-down object outline 22"
        viewBox="0 0.000005066394805908203 26.916793823242188 24.97077625989914"
        preserveAspectRatio="none"
        xmlns="http://www.w3.org/2000/svg"
      >
        <path
          d="M0 14.00578l17.68375-13.2225c2.36502-1.66625 5.69754-0.5375 7.90127 2.09625 2.04251 2.63375 1.72 6.235-0.85998 8.11625l-17.95252 13.975"
          fill="none"
          stroke="#A29283"
          stroke-width="1.2"
          stroke-linecap="butt"
          stroke-linejoin="miter"
          vector-effect="non-scaling-stroke"
        ></path>
      </svg></g></svg>